<svg width="275" height="240" viewBox="0 0 275 240" fill="none" xmlns="http://www.w3.org/2000/svg">
<path d="M1.52904 189.764C1.52904 189.764 26.5859 172.197 39.3144 156.401C61.9389 128.325 76.8021 67.1389 76.8021 67.1389C76.8021 67.1389 78.1922 62.4836 78.0946 53.2856C77.9969 44.0876 71.5533 44.2145 70.3192 45.4235C69.0851 46.6326 62.7279 50.3265 67.9336 67.2464C73.1394 84.1664 75.7566 92.4697 82.2069 102.809C88.6572 113.148 99.1475 123.508 96.438 147.009C93.7285 170.51 71.4535 173.608 63.6797 173.606C34.7937 173.6 6.05313 144.014 25.3555 120.994C33.4708 111.315 77.1651 134.746 104.215 159.709C113.366 168.153 119.173 160.058 126.945 147.363" stroke="#516037" stroke-width="3"/>
<path d="M135.52 137.08C134.96 137.08 134.56 136.9 134.32 136.54C134.16 136.34 134.08 136.08 134.08 135.76C134.08 135.12 134.38 134.6 134.98 134.2C135.42 133.96 135.82 133.84 136.18 133.84C136.78 133.84 137.2 134.02 137.44 134.38C137.6 134.58 137.68 134.84 137.68 135.16C137.68 135.8 137.36 136.32 136.72 136.72C136.36 136.96 135.96 137.08 135.52 137.08ZM125.08 160.18C124.68 160.18 124.34 160.1 124.06 159.94C123.82 159.78 123.7 159.48 123.7 159.04C123.7 158.48 123.84 157.82 124.12 157.06C124.44 156.3 124.78 155.54 125.14 154.78C125.54 154.02 125.84 153.4 126.04 152.92C126.32 152.36 126.66 151.64 127.06 150.76C127.5 149.84 127.9 148.98 128.26 148.18C128.66 147.34 128.94 146.76 129.1 146.44C128.54 147.04 127.86 147.8 127.06 148.72C126.3 149.6 125.58 150.46 124.9 151.3C124.22 152.14 123.7 152.8 123.34 153.28C123.22 153.44 123.12 153.52 123.04 153.52C122.96 153.52 122.92 153.42 122.92 153.22C122.92 152.9 123.02 152.6 123.22 152.32C123.98 151.36 124.82 150.28 125.74 149.08C126.7 147.88 127.56 146.78 128.32 145.78C129.08 144.74 129.56 144.06 129.76 143.74C130.2 143.66 130.84 143.54 131.68 143.38C132.56 143.22 133.16 143 133.48 142.72C133.6 142.6 133.72 142.54 133.84 142.54C133.92 142.54 133.96 142.62 133.96 142.78C134 142.9 133.96 143.04 133.84 143.2C133.6 143.48 133.18 144.16 132.58 145.24C131.98 146.32 131.34 147.52 130.66 148.84C130.02 150.12 129.42 151.28 128.86 152.32C128.3 153.4 127.82 154.44 127.42 155.44C127.02 156.44 126.82 157.16 126.82 157.6C126.82 158.16 127.1 158.44 127.66 158.44C128.18 158.44 128.84 158.12 129.64 157.48C130.48 156.84 131.32 156.08 132.16 155.2C133 154.28 133.74 153.44 134.38 152.68C134.58 152.44 134.82 152.16 135.1 151.84C135.42 151.48 135.62 151.26 135.7 151.18C135.78 151.26 135.82 151.4 135.82 151.6C135.78 151.88 135.68 152.16 135.52 152.44C135.36 152.68 135.2 152.9 135.04 153.1C134.2 154.14 133.28 155.22 132.28 156.34C131.28 157.42 130.18 158.34 128.98 159.1C127.78 159.82 126.48 160.18 125.08 160.18ZM123.843 181C122.323 181 120.863 180.64 119.463 179.92C118.023 179.24 116.963 178.18 116.283 176.74C116.003 176.22 115.823 175.66 115.743 175.06C115.663 174.5 115.623 173.94 115.623 173.38V172.78C115.623 172.46 115.663 172.16 115.743 171.88C115.823 171.6 116.043 171.46 116.403 171.46C116.483 171.46 116.523 171.5 116.523 171.58C116.523 171.82 116.503 172.06 116.463 172.3C116.423 172.54 116.403 172.8 116.403 173.08C116.403 174.92 117.003 176.32 118.203 177.28C119.363 178.24 120.823 178.72 122.583 178.72C123.303 178.72 124.043 178.64 124.803 178.48C125.563 178.32 126.263 178.1 126.903 177.82C129.463 176.74 131.683 175.18 133.563 173.14C135.483 171.1 137.143 168.8 138.543 166.24C139.983 163.68 141.243 161.06 142.323 158.38C143.443 155.66 144.483 153.1 145.443 150.7C144.603 152.06 143.683 153.28 142.683 154.36C141.683 155.4 140.563 156.44 139.323 157.48C138.563 158.12 137.723 158.72 136.803 159.28C135.923 159.84 134.963 160.12 133.923 160.12C133.523 160.12 133.243 160 133.083 159.76C132.923 159.48 132.843 159.16 132.843 158.8V158.38C133.043 156.82 133.543 155.2 134.343 153.52C135.183 151.84 136.183 150.26 137.343 148.78C138.503 147.3 139.683 146.1 140.883 145.18C142.243 144.14 143.743 143.62 145.383 143.62H152.283C152.483 143.62 152.583 143.7 152.583 143.86C152.583 144.18 152.403 144.34 152.043 144.34C151.603 144.34 151.183 144.52 150.783 144.88C150.383 145.24 150.083 145.58 149.883 145.9C149.483 146.54 148.963 147.52 148.323 148.84C147.683 150.16 146.983 151.68 146.223 153.4C145.463 155.08 144.703 156.8 143.943 158.56C143.183 160.28 142.483 161.9 141.843 163.42C140.883 165.7 139.783 167.92 138.543 170.08C137.343 172.28 135.903 174.24 134.223 175.96C132.583 177.72 130.623 179.1 128.343 180.1C126.983 180.7 125.483 181 123.843 181ZM136.383 158.08C136.863 158.08 137.523 157.74 138.363 157.06C139.203 156.34 140.123 155.46 141.123 154.42C142.123 153.34 143.063 152.22 143.943 151.06C144.823 149.86 145.543 148.78 146.103 147.82C146.703 146.82 147.003 146.06 147.003 145.54C147.003 145.1 146.863 144.8 146.583 144.64C146.343 144.48 146.023 144.4 145.623 144.4C144.983 144.4 144.303 144.64 143.583 145.12C142.863 145.56 142.283 146 141.843 146.44C141.363 146.88 140.783 147.58 140.103 148.54C139.463 149.46 138.803 150.48 138.123 151.6C137.483 152.72 136.943 153.8 136.503 154.84C136.063 155.88 135.843 156.72 135.843 157.36C135.843 157.84 136.023 158.08 136.383 158.08ZM150.822 160.9C150.662 160.9 150.662 160.72 150.822 160.36C151.022 160 151.202 159.6 151.362 159.16C151.562 158.72 151.762 158.24 151.962 157.72C152.362 156.76 152.802 155.68 153.282 154.48C153.762 153.28 154.222 152.12 154.662 151C155.102 149.84 155.482 148.86 155.802 148.06C156.162 147.22 156.402 146.68 156.522 146.44C155.962 147.04 155.282 147.8 154.482 148.72C153.722 149.6 153.002 150.46 152.322 151.3C151.642 152.14 151.122 152.8 150.762 153.28C150.642 153.44 150.542 153.52 150.462 153.52C150.382 153.52 150.342 153.42 150.342 153.22C150.342 152.9 150.442 152.6 150.642 152.32C151.402 151.36 152.242 150.28 153.162 149.08C154.122 147.88 154.982 146.78 155.742 145.78C156.502 144.74 156.982 144.06 157.182 143.74C157.622 143.66 158.262 143.54 159.102 143.38C159.982 143.22 160.582 143 160.902 142.72C161.022 142.6 161.142 142.54 161.262 142.54C161.342 142.54 161.382 142.62 161.382 142.78C161.422 142.9 161.382 143.04 161.262 143.2C161.022 143.48 160.602 144.14 160.002 145.18C159.442 146.18 158.822 147.3 158.142 148.54C157.502 149.78 156.902 150.9 156.342 151.9C156.822 151.26 157.342 150.64 157.902 150.04C158.462 149.44 159.002 148.86 159.522 148.3C160.002 147.82 160.662 147.22 161.502 146.5C162.342 145.78 163.222 145.12 164.142 144.52C165.062 143.92 165.862 143.58 166.542 143.5C166.702 143.46 166.842 143.44 166.962 143.44C167.122 143.44 167.242 143.44 167.322 143.44C168.202 143.44 168.642 143.76 168.642 144.4C168.642 144.88 168.382 145.52 167.862 146.32C167.582 146.76 167.142 147.5 166.542 148.54C165.982 149.54 165.402 150.64 164.802 151.84C164.242 153 163.742 154.1 163.302 155.14C162.902 156.14 162.702 156.88 162.702 157.36C162.702 157.92 162.982 158.2 163.542 158.2C164.222 158.2 164.962 157.86 165.762 157.18C166.602 156.5 167.502 155.64 168.462 154.6C169.422 153.52 170.382 152.38 171.342 151.18C171.422 151.26 171.462 151.4 171.462 151.6C171.462 151.88 171.362 152.16 171.162 152.44C171.002 152.68 170.842 152.9 170.682 153.1C170.282 153.62 169.742 154.28 169.062 155.08C168.422 155.84 167.762 156.6 167.082 157.36C166.402 158.08 165.782 158.66 165.222 159.1C164.822 159.38 164.302 159.68 163.662 160C163.022 160.32 162.382 160.48 161.742 160.48C161.022 160.48 160.522 160.3 160.242 159.94C159.962 159.54 159.822 159.06 159.822 158.5C159.822 157.86 159.942 157.18 160.182 156.46C160.422 155.74 160.682 155.06 160.962 154.42C161.282 153.74 161.522 153.24 161.682 152.92C162.402 151.52 163.062 150.2 163.662 148.96C164.262 147.72 164.682 146.84 164.922 146.32C165.042 146.08 165.102 145.88 165.102 145.72C165.102 145.44 164.882 145.42 164.442 145.66C164.002 145.9 163.462 146.26 162.822 146.74C162.222 147.22 161.662 147.7 161.142 148.18C160.622 148.62 160.282 148.92 160.122 149.08C158.642 150.64 157.342 152.38 156.222 154.3C155.142 156.18 154.222 158.12 153.462 160.12C152.942 160.16 152.422 160.3 151.902 160.54C151.382 160.78 151.022 160.9 150.822 160.9ZM182.747 137.08C182.187 137.08 181.787 136.9 181.547 136.54C181.387 136.34 181.307 136.08 181.307 135.76C181.307 135.12 181.607 134.6 182.207 134.2C182.647 133.96 183.047 133.84 183.407 133.84C184.007 133.84 184.427 134.02 184.667 134.38C184.827 134.58 184.907 134.84 184.907 135.16C184.907 135.8 184.587 136.32 183.947 136.72C183.587 136.96 183.187 137.08 182.747 137.08ZM172.307 160.18C171.907 160.18 171.567 160.1 171.287 159.94C171.047 159.78 170.927 159.48 170.927 159.04C170.927 158.48 171.067 157.82 171.347 157.06C171.667 156.3 172.007 155.54 172.367 154.78C172.767 154.02 173.067 153.4 173.267 152.92C173.547 152.36 173.887 151.64 174.287 150.76C174.727 149.84 175.127 148.98 175.487 148.18C175.887 147.34 176.167 146.76 176.327 146.44C175.767 147.04 175.087 147.8 174.287 148.72C173.527 149.6 172.807 150.46 172.127 151.3C171.447 152.14 170.927 152.8 170.567 153.28C170.447 153.44 170.347 153.52 170.267 153.52C170.187 153.52 170.147 153.42 170.147 153.22C170.147 152.9 170.247 152.6 170.447 152.32C171.207 151.36 172.047 150.28 172.967 149.08C173.927 147.88 174.787 146.78 175.547 145.78C176.307 144.74 176.787 144.06 176.987 143.74C177.427 143.66 178.067 143.54 178.907 143.38C179.787 143.22 180.387 143 180.707 142.72C180.827 142.6 180.947 142.54 181.067 142.54C181.147 142.54 181.187 142.62 181.187 142.78C181.227 142.9 181.187 143.04 181.067 143.2C180.827 143.48 180.407 144.16 179.807 145.24C179.207 146.32 178.567 147.52 177.887 148.84C177.247 150.12 176.647 151.28 176.087 152.32C175.527 153.4 175.047 154.44 174.647 155.44C174.247 156.44 174.047 157.16 174.047 157.6C174.047 158.16 174.327 158.44 174.887 158.44C175.407 158.44 176.067 158.12 176.867 157.48C177.707 156.84 178.547 156.08 179.387 155.2C180.227 154.28 180.967 153.44 181.607 152.68C181.807 152.44 182.047 152.16 182.327 151.84C182.647 151.48 182.847 151.26 182.927 151.18C183.007 151.26 183.047 151.4 183.047 151.6C183.007 151.88 182.907 152.16 182.747 152.44C182.587 152.68 182.427 152.9 182.267 153.1C181.427 154.14 180.507 155.22 179.507 156.34C178.507 157.42 177.407 158.34 176.207 159.1C175.007 159.82 173.707 160.18 172.307 160.18ZM167.89 173.56C166.33 173.56 165.03 173.3 163.99 172.78C162.91 172.3 162.19 171.56 161.83 170.56C161.79 170.44 161.77 170.32 161.77 170.2C161.73 170.08 161.71 169.94 161.71 169.78C161.71 169.18 161.85 168.5 162.13 167.74C162.41 167.02 162.71 166.24 163.03 165.4C163.15 165.16 163.29 165.04 163.45 165.04C163.73 165.04 163.81 165.24 163.69 165.64C163.41 166.24 163.27 166.88 163.27 167.56C163.27 168.92 163.87 170 165.07 170.8C166.27 171.6 167.63 172 169.15 172C169.75 172 170.37 171.92 171.01 171.76C171.61 171.64 172.19 171.44 172.75 171.16C174.63 170.2 176.17 168.92 177.37 167.32C178.57 165.72 179.63 164.06 180.55 162.34C181.95 159.66 183.15 156.86 184.15 153.94C185.19 150.98 186.29 148.06 187.45 145.18H186.07C185.87 145.18 185.65 145.2 185.41 145.24C185.17 145.28 184.95 145.32 184.75 145.36L184.63 145.3C184.71 144.86 185.09 144.48 185.77 144.16C186.49 143.8 187.05 143.62 187.45 143.62H188.17C188.61 142.54 189.19 141.26 189.91 139.78C190.67 138.3 191.43 136.84 192.19 135.4C192.99 133.92 193.69 132.68 194.29 131.68C195.97 128.92 197.81 126.84 199.81 125.44C201.81 124.04 204.03 123.34 206.47 123.34C206.95 123.34 207.41 123.5 207.85 123.82C208.33 124.1 208.55 124.54 208.51 125.14L208.33 127.3C208.33 127.42 208.23 127.48 208.03 127.48C207.95 127.48 207.91 127.46 207.91 127.42C207.79 126.7 207.41 126.14 206.77 125.74C206.17 125.34 205.45 125.14 204.61 125.14C204.01 125.14 203.37 125.26 202.69 125.5C201.57 125.86 200.49 126.52 199.45 127.48C198.45 128.4 197.37 129.86 196.21 131.86C195.65 132.86 195.07 134.04 194.47 135.4C193.87 136.76 193.27 138.16 192.67 139.6C192.07 141.04 191.49 142.38 190.93 143.62C191.89 143.62 192.83 143.64 193.75 143.68C194.67 143.68 195.53 143.68 196.33 143.68C197.53 143.68 198.63 143.64 199.63 143.56C200.63 143.48 201.51 143.3 202.27 143.02L203.11 142.72C203.19 142.68 203.31 142.66 203.47 142.66C203.55 142.66 203.59 142.7 203.59 142.78C203.59 142.9 203.51 143.04 203.35 143.2C203.11 143.48 202.69 144.16 202.09 145.24C201.49 146.32 200.85 147.52 200.17 148.84C199.53 150.12 198.95 151.28 198.43 152.32C197.83 153.4 197.33 154.44 196.93 155.44C196.53 156.44 196.33 157.16 196.33 157.6C196.33 158.16 196.61 158.44 197.17 158.44C197.69 158.44 198.37 158.12 199.21 157.48C200.05 156.84 200.91 156.08 201.79 155.2C202.67 154.28 203.43 153.44 204.07 152.68C204.27 152.44 204.51 152.16 204.79 151.84C205.07 151.48 205.25 151.26 205.33 151.18C205.57 151.42 205.55 151.78 205.27 152.26C204.99 152.7 204.75 153.02 204.55 153.22C203.67 154.26 202.73 155.32 201.73 156.4C200.73 157.48 199.65 158.38 198.49 159.1C197.33 159.82 196.05 160.18 194.65 160.18C194.25 160.18 193.91 160.1 193.63 159.94C193.35 159.78 193.21 159.48 193.21 159.04C193.21 158.48 193.35 157.82 193.63 157.06C193.95 156.3 194.29 155.54 194.65 154.78C195.05 154.02 195.35 153.4 195.55 152.92C195.83 152.36 196.17 151.64 196.57 150.76C197.01 149.84 197.41 148.98 197.77 148.18C198.17 147.34 198.45 146.76 198.61 146.44C198.81 146.04 198.93 145.7 198.97 145.42C199.05 145.1 199.11 144.84 199.15 144.64C198.35 144.8 197.39 144.94 196.27 145.06C195.15 145.14 194.05 145.18 192.97 145.18C191.89 145.18 190.99 145.18 190.27 145.18C189.39 147.38 188.55 149.48 187.75 151.48C186.99 153.44 186.15 155.36 185.23 157.24C184.47 158.92 183.53 160.7 182.41 162.58C181.29 164.46 180.01 166.24 178.57 167.92C177.13 169.6 175.53 170.96 173.77 172C171.97 173.04 170.01 173.56 167.89 173.56ZM205.09 137.08C204.49 137.08 204.07 136.9 203.83 136.54C203.79 136.42 203.73 136.3 203.65 136.18C203.61 136.06 203.59 135.94 203.59 135.82C203.59 135.14 203.91 134.6 204.55 134.2C204.99 133.96 205.39 133.84 205.75 133.84C206.35 133.84 206.77 134.02 207.01 134.38C207.09 134.5 207.15 134.62 207.19 134.74C207.23 134.86 207.25 134.98 207.25 135.1C207.25 135.78 206.93 136.32 206.29 136.72C205.89 136.96 205.49 137.08 205.09 137.08ZM206.712 160.48C205.232 160.48 204.192 160.2 203.592 159.64C202.992 159.08 202.692 158.36 202.692 157.48C202.692 156.32 203.072 155.04 203.832 153.64C204.592 152.2 205.312 151 205.992 150.04C206.672 149.12 207.432 148.26 208.272 147.46C209.152 146.62 210.092 145.9 211.092 145.3C211.732 144.9 212.592 144.48 213.672 144.04C214.792 143.56 215.732 143.32 216.492 143.32C217.412 143.32 218.052 143.54 218.412 143.98C218.772 144.38 218.952 144.88 218.952 145.48C218.952 145.96 218.872 146.46 218.712 146.98C218.552 147.46 218.372 147.92 218.172 148.36C218.052 148.6 217.872 148.78 217.632 148.9C217.392 148.98 217.272 148.94 217.272 148.78C217.272 148.58 217.292 148.4 217.332 148.24C217.372 148.08 217.392 147.9 217.392 147.7C217.392 146.94 217.212 146.2 216.852 145.48C216.532 144.72 216.032 144.34 215.352 144.34C214.632 144.34 213.852 144.6 213.012 145.12C212.172 145.6 211.592 146.02 211.272 146.38C210.232 147.46 209.212 148.8 208.212 150.4C207.252 152 206.552 153.52 206.112 154.96C205.832 155.8 205.692 156.52 205.692 157.12C205.692 157.8 205.872 158.28 206.232 158.56C206.592 158.84 207.032 158.98 207.552 158.98C207.952 158.98 208.372 158.92 208.812 158.8C209.292 158.68 209.792 158.54 210.312 158.38C211.512 157.98 212.712 157.36 213.912 156.52C215.152 155.64 216.272 154.72 217.272 153.76C218.272 152.76 219.032 151.9 219.552 151.18C219.632 151.26 219.672 151.38 219.672 151.54C219.672 151.74 219.592 151.98 219.432 152.26C219.272 152.5 219.152 152.7 219.072 152.86C218.232 153.98 217.132 155.14 215.772 156.34C214.412 157.5 212.932 158.48 211.332 159.28C209.772 160.08 208.232 160.48 206.712 160.48Z" fill="#4E5A32"/>
<path d="M121 166.54H216.432V167.44H121V166.54Z" fill="#4E5A32"/>
<g filter="url(#filter0_d_34_19)">
<path d="M17.6 18.64C23.7867 18.2133 29.2533 18 34 18C47.1733 18 53.76 22.4 53.76 31.2C53.76 34.9333 52.8533 38.2667 51.04 41.2C49.2267 44.1333 46.1067 46.08 41.68 47.04L57.68 74H50.24L34.56 47.52H24.24V74H17.6V18.64ZM34 18.8C30.9067 18.8 27.6533 18.9867 24.24 19.36V46.72H36.08C43.6 46.4 47.36 41.28 47.36 31.36C47.36 27.3067 46.24 24.2133 44 22.08C41.76 19.8933 38.4267 18.8 34 18.8Z" fill="#4E5A32"/>
<path d="M12 82H60.08V86H12V82Z" fill="#4E5A32"/>
</g>
<defs>
<filter id="filter0_d_34_19" x="8" y="18" width="56.08" height="76" filterUnits="userSpaceOnUse" color-interpolation-filters="sRGB">
<feFlood flood-opacity="0" result="BackgroundImageFix"/>
<feColorMatrix in="SourceAlpha" type="matrix" values="0 0 0 0 0 0 0 0 0 0 0 0 0 0 0 0 0 0 127 0" result="hardAlpha"/>
<feOffset dy="4"/>
<feGaussianBlur stdDeviation="2"/>
<feComposite in2="hardAlpha" operator="out"/>
<feColorMatrix type="matrix" values="0 0 0 0 0 0 0 0 0 0 0 0 0 0 0 0 0 0 0.25 0"/>
<feBlend mode="normal" in2="BackgroundImageFix" result="effect1_dropShadow_34_19"/>
<feBlend mode="normal" in="SourceGraphic" in2="effect1_dropShadow_34_19" result="shape"/>
</filter>
</defs>
</svg>
