<svg width="411" height="411" viewBox="0 0 411 411" fill="none" xmlns="http://www.w3.org/2000/svg">
<circle cx="205.5" cy="205.5" r="202" stroke="#794691" stroke-width="7"/>
<path d="M170.226 290.064L128.298 238.351C124.82 234.061 125.478 227.764 129.768 224.286L200.755 166.73C202.824 165.052 205.477 164.27 208.126 164.556L260.664 170.225C263.429 170.523 265.42 173.022 265.092 175.784L258.99 227.324C258.683 229.91 257.38 232.275 255.357 233.916L184.292 291.534C180.002 295.012 173.705 294.354 170.226 290.064Z" stroke="#794691" stroke-width="2"/>
<circle cx="247.367" cy="184.699" r="4.45338" transform="rotate(14.4243 247.367 184.699)" stroke="#794691" stroke-width="3"/>
<path d="M189.559 214.722C182.345 214.633 179.408 218.513 177.608 221.524C176.41 223.53 174.876 231.511 178.191 237.693C179.636 240.39 185.724 240.13 190.033 239.698C194.353 239.265 199.357 237.237 204.566 235.029C208.827 233.223 212.878 232.546 215.672 233.308C213.321 228.349 207.572 223.899 204.737 221.213C201.192 217.856 194.318 214.781 189.559 214.722Z" stroke="#794691" stroke-width="2"/>
<path d="M196.027 227.519C191.572 226.678 181.577 225.137 177.231 225.7C172.886 226.263 166.125 228.307 163.288 229.259" stroke="#794691" stroke-width="2"/>
<path d="M272.593 185.626L272.914 188.609L272.914 188.609L272.593 185.626ZM301.539 170.753L303.79 172.736L301.539 170.753ZM269.533 157.152L270.484 159.997L269.533 157.152ZM248.489 166.542C247.264 167.657 247.175 169.555 248.291 170.78C249.407 172.005 251.304 172.093 252.529 170.977L248.489 166.542ZM251.417 185.012C252.817 185.375 256.603 186.59 260.264 187.438C264.092 188.324 268.695 189.063 272.914 188.609L272.272 182.643C269.065 182.989 265.248 182.433 261.617 181.592C257.818 180.713 255.106 179.77 252.924 179.204L251.417 185.012ZM272.914 188.609C278.203 188.039 285.137 184.91 290.864 181.731C293.793 180.105 296.531 178.395 298.75 176.856C300.891 175.371 302.768 173.896 303.79 172.736L299.288 168.77C298.791 169.334 297.451 170.455 295.33 171.926C293.287 173.343 290.719 174.949 287.952 176.485C282.285 179.63 276.265 182.213 272.272 182.643L272.914 188.609ZM303.79 172.736C305.268 171.059 305.637 168.732 305.582 166.772C305.524 164.696 304.982 162.432 304.013 160.332C302.101 156.187 298.12 151.969 292 151.98L292.012 157.98C294.95 157.974 297.229 159.948 298.565 162.845C299.221 164.267 299.551 165.738 299.584 166.94C299.601 167.538 299.543 168.008 299.456 168.342C299.367 168.685 299.272 168.788 299.288 168.77L303.79 172.736ZM292 151.98C287.36 151.989 282.402 152.284 278.212 152.706C274.134 153.117 270.462 153.678 268.583 154.306L270.484 159.997C271.643 159.61 274.679 159.093 278.813 158.676C282.835 158.271 287.594 157.988 292.012 157.98L292 151.98ZM268.583 154.306C267.731 154.591 266.344 155.252 264.839 156.029C263.264 156.843 261.361 157.888 259.388 159.043C255.512 161.311 251.118 164.146 248.489 166.542L252.529 170.977C254.656 169.04 258.573 166.472 262.419 164.221C264.308 163.115 266.119 162.121 267.593 161.36C269.138 160.562 270.135 160.114 270.484 159.997L268.583 154.306Z" fill="#794691"/>
<path d="M47.8837 119.742C50.5632 115.94 53.0261 112.658 55.2724 109.896C61.5065 102.232 67.1837 100.481 72.3039 104.646C74.4762 106.413 75.9866 108.518 76.8352 110.961C77.6838 113.404 77.34 116.141 75.8037 119.171L99.0621 122.62L95.5412 126.948L72.7135 123.541L67.8297 129.545L83.2371 142.076L80.0948 145.94L47.8837 119.742ZM55.7378 110.275C54.274 112.075 52.843 114.056 51.4449 116.219L67.3642 129.167L72.9674 122.278C76.3399 117.751 75.1402 113.14 69.3683 108.445C67.0099 106.527 64.68 105.715 62.3787 106.009C60.0463 106.277 57.8327 107.699 55.7378 110.275Z" fill="#794691"/>
<path d="M100.066 102.689C103.05 106.651 105.927 109.041 108.697 109.859C111.498 110.654 114.033 110.197 116.302 108.488C119.497 106.082 121.98 103.461 123.75 100.625L124.146 100.852C122.336 103.768 119.818 106.441 116.591 108.872C113.395 111.278 110.069 112.281 106.613 111.88C103.156 111.479 99.9234 109.281 96.9153 105.287C93.9073 101.293 92.6274 97.3998 93.0758 93.6069C93.5241 89.814 95.3778 86.6902 98.6369 84.2357C101.257 82.2624 104.051 81.3848 107.02 81.6028C109.988 81.8208 112.627 83.4635 114.938 86.5308C115.058 86.6906 115.178 86.8504 115.299 87.0101L98.1884 99.8966C98.7423 100.831 99.3682 101.762 100.066 102.689ZM111.751 89.0813C109.409 86.038 107.109 84.2146 104.852 83.6112C102.594 83.0077 100.555 83.3918 98.734 84.7635C96.9127 86.1351 95.8848 88.1612 95.6502 90.8417C95.4476 93.4981 96.2134 96.3766 97.9476 99.4771L111.751 89.0813Z" fill="#794691"/>
<path d="M165.328 43.4526C161.444 43.1018 157.944 43.3696 154.827 44.2559C151.749 45.1313 149.531 46.4693 148.171 48.2699C146.812 50.0704 146.461 52.1249 147.117 54.4333C147.916 57.242 149.996 58.9999 153.358 59.7072C154.852 59.9893 156.451 60.2 158.154 60.3394C159.885 60.4294 161.637 60.5963 163.411 60.8402C165.186 61.0841 166.853 61.4624 168.413 61.9753C169.973 62.4881 171.381 63.4184 172.637 64.766C173.883 66.0752 174.851 67.9417 175.54 70.3656C176.218 72.751 176.125 74.9816 175.26 77.0575C174.395 79.1333 173.088 80.7526 171.339 81.9153C169.618 83.0286 167.488 83.9464 164.949 84.6686C160.216 86.0146 155.843 85.9901 151.828 84.5952L151.985 84.0514C153.54 84.6906 155.41 85.0528 157.597 85.1378C159.811 85.1734 161.976 84.8903 164.092 84.2885C167.209 83.4021 169.661 81.9353 171.449 79.888C173.265 77.7913 173.773 75.3387 172.974 72.5301C172.099 69.4521 169.953 67.4633 166.536 66.5636C165.009 66.1662 163.364 65.8648 161.601 65.6594C159.876 65.443 158.126 65.2129 156.352 64.969C154.566 64.6866 152.894 64.289 151.334 63.7762C147.863 62.6841 145.624 60.3683 144.617 56.8287C143.818 54.0201 144.115 51.482 145.508 49.2145C146.89 46.9085 149.466 45.2193 153.237 44.1469C157.046 43.0636 161.098 42.6179 165.395 42.8098L165.328 43.4526Z" fill="#794691"/>
<path d="M193.093 79.2461C191.461 79.4111 190.172 79.1796 189.224 78.5518C188.316 77.92 187.805 77.2479 187.693 76.5356L187.531 75.5268L184.942 49.9173L189.12 49.4948L191.709 75.1043C191.826 76.2584 192.136 77.1317 192.638 77.7242C193.176 78.2729 193.666 78.545 194.107 78.5405L194.836 78.5875L196.686 78.4004L196.735 78.8779L193.093 79.2461ZM184.624 43.1952C184.098 42.7659 183.799 42.1931 183.726 41.4768C183.654 40.7604 183.832 40.1393 184.262 39.6135C184.687 39.0478 185.258 38.7288 185.974 38.6564C186.69 38.5839 187.313 38.7823 187.843 39.2513C188.409 39.6766 188.728 40.2474 188.8 40.9637C188.873 41.6801 188.675 42.3032 188.205 42.8331C187.776 43.3589 187.203 43.6581 186.487 43.7305C185.771 43.8029 185.15 43.6245 184.624 43.1952Z" fill="#794691"/>
<path d="M206.62 64.1184C207.012 58.9333 208.572 55.0199 211.299 52.3783C214.027 49.7366 217.903 48.6061 222.929 48.9866C226.638 49.2675 230.357 50.211 234.087 51.8171L231.899 80.7144C231.14 90.2042 226.633 94.6365 218.376 94.0114C213.829 93.6671 210.052 91.8969 207.045 88.7007L207.491 88.3735C210.704 91.505 214.344 93.2247 218.412 93.5328C223.917 93.9495 227.016 89.571 227.711 80.3973L228.159 74.4743C227.296 75.8129 225.946 76.9542 224.109 77.8982C222.273 78.8423 220.158 79.2237 217.765 79.0425C209.643 78.227 205.928 73.2523 206.62 64.1184ZM217.861 78.5684C220.533 78.7707 222.881 78.2264 224.904 76.9355C226.927 75.6446 228.052 74.3057 228.277 72.9187L229.876 51.7992C227.095 50.3851 224.707 49.6026 222.713 49.4516C219.163 49.1829 216.385 50.3765 214.379 53.0326C212.375 55.6488 211.185 59.4498 210.808 64.4355C210.125 73.4497 212.476 78.1607 217.861 78.5684Z" fill="#794691"/>
<path d="M264.049 89.0311C262.485 88.5379 261.392 87.8157 260.769 86.8643C260.184 85.9251 259.981 85.1061 260.16 84.4074L260.409 83.4166L266.075 65.4486C267.025 62.4348 266.85 60.2617 265.551 58.9293C264.87 58.2952 263.938 57.7917 262.756 57.4188C260.314 56.649 257.814 56.9302 255.255 58.2623C252.708 59.5563 251.194 60.9662 250.713 62.4922L244.307 82.8063L240.302 81.5433L249.323 52.9319L253.329 54.1949L251.272 60.7183C252.438 59.2824 254.12 58.1353 256.32 57.2771C258.532 56.3808 260.687 56.2634 262.786 56.925C264.884 57.5865 266.515 58.3316 267.68 59.1602C268.895 59.9627 269.693 60.8226 270.075 61.7399C270.656 63.2232 270.652 64.8995 270.062 66.7688L264.415 84.6795C264.066 85.7859 264.005 86.7104 264.232 87.453C264.51 88.1696 264.871 88.6191 265.317 88.8016L265.91 89.1146L267.684 89.6739L267.54 90.1317L264.049 89.0311Z" fill="#794691"/>
<path d="M279.401 96.631C277.95 95.8666 277.003 94.9607 276.56 93.9135C276.152 92.885 276.099 92.0429 276.399 91.3873L276.821 90.4569L288.82 67.6844L292.536 69.6422L280.537 92.4147C279.996 93.4409 279.771 94.3397 279.862 95.111C280.007 95.8656 280.265 96.3631 280.636 96.6036L281.217 97.0454L282.862 97.9124L282.639 98.3371L279.401 96.631ZM292.271 61.907C292.07 61.2586 292.137 60.6159 292.473 59.9789C292.808 59.3419 293.3 58.9229 293.949 58.722C294.616 58.4857 295.268 58.5354 295.905 58.871C296.542 59.2066 296.952 59.7163 297.134 60.4001C297.37 61.0672 297.32 61.7192 296.985 62.3562C296.649 62.9932 296.139 63.4028 295.456 63.5851C294.807 63.786 294.165 63.7187 293.528 63.383C292.891 63.0474 292.472 62.5554 292.271 61.907Z" fill="#794691"/>
<path d="M313.826 79.3509L312.201 81.6558L316.075 84.3868L315.798 84.7791L311.924 82.0481L294.916 106.176L291.483 103.756L308.491 79.6282L307.462 78.9023L307.738 78.51L308.768 79.2359L310.393 76.931C312.905 73.3675 315.459 71.3753 318.056 70.9546C320.676 70.5012 323.714 71.4681 327.169 73.8553L326.893 74.2476C324.614 72.6901 322.454 72.3176 320.413 73.1301C318.395 73.9099 316.199 75.9835 313.826 79.3509Z" fill="#794691"/>
<path d="M311.341 119.468C310.134 118.359 309.449 117.241 309.288 116.115C309.157 115.017 309.32 114.189 309.778 113.632L310.424 112.84L327.839 93.8864L330.932 96.7281L313.517 115.682C312.732 116.536 312.285 117.348 312.176 118.117C312.123 118.883 312.245 119.43 312.542 119.757L312.991 120.333L314.361 121.591L314.036 121.945L311.341 119.468ZM332.651 89.1816C332.623 88.5034 332.852 87.8992 333.339 87.369C333.826 86.8389 334.409 86.5594 335.087 86.5307C335.792 86.4726 336.41 86.6871 336.94 87.1743C337.47 87.6614 337.736 88.2588 337.738 88.9665C337.796 89.6718 337.582 90.2895 337.094 90.8197C336.607 91.3499 336.01 91.6158 335.302 91.6174C334.624 91.6461 334.02 91.4168 333.49 90.9297C332.959 90.4425 332.68 89.8598 332.651 89.1816Z" fill="#794691"/>
<path d="M352.842 121.201C351.106 118.953 348.575 117.901 345.249 118.044C341.947 118.219 338.397 119.773 334.598 122.707C330.799 125.641 328.507 128.498 327.722 131.277C326.962 134.088 327.45 136.617 329.186 138.865C331.362 141.683 333.768 143.817 336.405 145.268L336.182 145.667C333.465 144.177 330.945 141.929 328.622 138.921C326.3 135.914 325.318 132.679 325.677 129.218C326.036 125.756 328.194 122.498 332.151 119.441C336.109 116.385 339.986 115.058 343.784 115.461C347.582 115.863 350.728 117.679 353.222 120.908C354.616 122.712 355.488 124.692 355.838 126.847C356.213 129.034 355.843 131.14 354.728 133.164L352.38 130.125C353.565 128.452 354.158 126.831 354.16 125.263C354.186 123.726 353.747 122.373 352.842 121.201Z" fill="#794691"/>
</svg>
